<svg width="73" height="80" viewBox="0 0 73 80" fill="none" xmlns="http://www.w3.org/2000/svg">
<path d="M49.5357 20.25C49.5357 16.9762 31 22 45.7176 11.5217C43.273 9.20675 39.9573 7.90625 36.5 7.90625C33.0427 7.90625 29.727 9.20675 27.2824 11.5217C43.9467 23.5 23.4643 16.9762 23.4643 20.25C23.4643 23.5238 24.8377 26.6634 27.2824 28.9783C29.727 31.2933 33.0427 32.5938 36.5 32.5938C39.9573 32.5938 43.273 31.2933 45.7176 28.9783C48.1623 26.6634 49.5357 23.5238 49.5357 20.25ZM15.6429 20.25C15.6429 15.012 17.8403 9.98849 21.7518 6.28464C25.6632 2.5808 30.9683 0.5 36.5 0.5C42.0317 0.5 47.3368 2.5808 51.2482 6.28464C55.1597 9.98849 57.3571 15.012 57.3571 20.25C57.3571 25.488 55.1597 30.5115 51.2482 34.2154C47.3368 37.9192 42.0317 40 36.5 40C30.9683 40 25.6632 37.9192 21.7518 34.2154C17.8403 30.5115 15.6429 25.488 15.6429 20.25ZM8.03326 72.0938L36.5 54.8125L64.9667 72.0938C63.5165 62.3268 54.6522 54.8125 43.9467 54.8125H29.0534C18.3478 54.8125 9.48348 62.3268 8.03326 72.0938ZM0 74.9174C0 59.7191 13.0031 47.4062 29.0534 47.4062H43.9467C59.9969 47.4062 73 59.7191 73 74.9174C73 77.4479 70.8328 79.5 68.1605 79.5H4.83951C2.16719 79.5 0 77.4479 0 74.9174Z" fill="#FFFEFE"/>
</svg>
