<svg width="73" height="79" viewBox="0 0 73 79" fill="none" xmlns="http://www.w3.org/2000/svg">
<path d="M49.5357 19.75C49.5357 16.4762 31 21.5 45.7176 11.0217C43.273 8.70675 39.9573 7.40625 36.5 7.40625C33.0427 7.40625 29.727 8.70675 27.2824 11.0217C43.9467 23 23.4643 16.4762 23.4643 19.75C23.4643 23.0238 24.8377 26.1634 27.2824 28.4783C29.727 30.7933 33.0427 32.0938 36.5 32.0938C39.9573 32.0938 43.273 30.7933 45.7176 28.4783C48.1623 26.1634 49.5357 23.0238 49.5357 19.75ZM15.6429 19.75C15.6429 14.512 17.8403 9.48849 21.7518 5.78464C25.6632 2.0808 30.9683 0 36.5 0C42.0317 0 47.3368 2.0808 51.2482 5.78464C55.1597 9.48849 57.3571 14.512 57.3571 19.75C57.3571 24.988 55.1597 30.0115 51.2482 33.7154C47.3368 37.4192 42.0317 39.5 36.5 39.5C30.9683 39.5 25.6632 37.4192 21.7518 33.7154C17.8403 30.0115 15.6429 24.988 15.6429 19.75ZM8.03326 71.5938L36.5 54.3125L64.9667 71.5938C63.5165 61.8268 54.6522 54.3125 43.9467 54.3125H29.0534C18.3478 54.3125 9.48348 61.8268 8.03326 71.5938ZM0 74.4174C0 59.2191 13.0031 46.9062 29.0534 46.9062H43.9467C59.9969 46.9062 73 59.2191 73 74.4174C73 76.9479 70.8328 79 68.1605 79H4.83951C2.16719 79 0 76.9479 0 74.4174Z" fill="#FFFEFE"/>
</svg>
